# xmcd
#
# Track frame offsets: 
#        150
#        20737
#        36354
#        52345
#        69169
#        83781
#        108792
#        124279
#        147576
#        164280
#        183038
#        204089
#        215265
#        235069
#        245534
#
# Disc length: 4205 seconds
#
# Revision: 0
# Processed by: cddbd v1.5.2PL0 Copyright (c) Steve Scherf et al.
# Submitted via: ExactAudioCopy v1.0b2
#
DISCID=cf106b0f
DTITLE=Vdelli - Live and On Fire
DYEAR=2014
DGENRE=Bluesrock
TTITLE0=Newtown
TTITLE1=Never GoingBack
TTITLE2=Dream Girl Nightmare
TTITLE3=Going Too Hard (For Too Long)
TTITLE4='Nuff Your Stuff
TTITLE5=Could Be Good
TTITLE6=Boogie A
TTITLE7=Coming For Me
TTITLE8=Boogie Sea
TTITLE9=Loose Endz
TTITLE10=Into The Zone
TTITLE11=Change The View
TTITLE12=She Don't Care
TTITLE13=What Is ThatYou Been Missing
TTITLE14=Tapestry Of Randomjams (Bonus Track)
EXTD=
EXTT0=
EXTT1=
EXTT2=
EXTT3=
EXTT4=
EXTT5=
EXTT6=
EXTT7=
EXTT8=
EXTT9=
EXTT10=
EXTT11=
EXTT12=
EXTT13=
EXTT14=
PLAYORDER=
